<svg xmlns="http://www.w3.org/2000/svg" viewBox="0 0 720 300" width="720" height="300" role="img" aria-label="Pass rate by policy with 95% confidence interval on the difference">
<text x="130" y="28" font-family="system-ui,sans-serif" font-size="15" font-weight="600" fill="#57606a">codex-honor-rate: pass rate by policy</text>
<line x1="130" y1="52" x2="130" y2="180" stroke="#d0d7de" stroke-width="1"/>
<text x="130" y="196" font-family="system-ui,sans-serif" font-size="11" fill="#57606a" text-anchor="middle">0%</text>
<line x1="267.5" y1="52" x2="267.5" y2="180" stroke="#d0d7de" stroke-width="1"/>
<text x="267.5" y="196" font-family="system-ui,sans-serif" font-size="11" fill="#57606a" text-anchor="middle">25%</text>
<line x1="405" y1="52" x2="405" y2="180" stroke="#d0d7de" stroke-width="1"/>
<text x="405" y="196" font-family="system-ui,sans-serif" font-size="11" fill="#57606a" text-anchor="middle">50%</text>
<line x1="542.5" y1="52" x2="542.5" y2="180" stroke="#d0d7de" stroke-width="1"/>
<text x="542.5" y="196" font-family="system-ui,sans-serif" font-size="11" fill="#57606a" text-anchor="middle">75%</text>
<line x1="680" y1="52" x2="680" y2="180" stroke="#d0d7de" stroke-width="1"/>
<text x="680" y="196" font-family="system-ui,sans-serif" font-size="11" fill="#57606a" text-anchor="middle">100%</text>
<text x="118" y="83" font-family="system-ui,sans-serif" font-size="13" fill="#57606a" text-anchor="end">with-tickets</text>
<rect x="130" y="60" width="550" height="38" fill="#0969da" rx="3"/>
<text x="688" y="83" font-family="system-ui,sans-serif" font-size="12" fill="#57606a">9/9 (100%)</text>
<text x="118" y="143" font-family="system-ui,sans-serif" font-size="13" fill="#57606a" text-anchor="end">no-tickets</text>
<rect x="130" y="120" width="305.55555555555554" height="38" fill="#8250df" rx="3"/>
<text x="443.55555555555554" y="143" font-family="system-ui,sans-serif" font-size="12" fill="#57606a">5/9 (56%)</text>
<text x="118" y="229" font-family="system-ui,sans-serif" font-size="13" fill="#57606a" text-anchor="end">difference</text>
<line x1="177.7898029504281" y1="224" x2="617.5043146966307" y2="224" stroke="#57606a" stroke-width="3"/>
<line x1="177.7898029504281" y1="217" x2="177.7898029504281" y2="231" stroke="#57606a" stroke-width="3"/>
<line x1="617.5043146966307" y1="217" x2="617.5043146966307" y2="231" stroke="#57606a" stroke-width="3"/>
<circle cx="449.9346405228758" cy="224" r="5" fill="#0969da"/>
<line x1="162.35294117647058" y1="204" x2="162.35294117647058" y2="244" stroke="#cf222e" stroke-width="1.5" stroke-dasharray="4 3"/>
<text x="162.35294117647058" y="258" font-family="system-ui,sans-serif" font-size="11" fill="#cf222e" text-anchor="middle">no difference</text>
<text x="130" y="290" font-family="system-ui,sans-serif" font-size="12" fill="#57606a">+44 pts (95% CI 2 to 70) - excludes zero</text>
</svg>