<svg xmlns="http://www.w3.org/2000/svg" viewBox="0 0 720 190" width="720" height="190" role="img" aria-label="Per-task pass count by policy">
<rect x="1" y="1" width="718" height="188" rx="14" fill="#F7F5EE" stroke="#D8D4C8"/>
<text x="12" y="26" font-family="system-ui,sans-serif" font-size="15" font-weight="600" fill="#171713">Pass count per task (out of trials run)</text>
<rect x="190" y="28" width="10" height="10" fill="#9BD627" rx="2"/>
<text x="206" y="37" font-family="system-ui,sans-serif" font-size="12" fill="#171713">with-tickets</text>
<rect x="340" y="28" width="10" height="10" fill="#746C83" rx="2"/>
<text x="356" y="37" font-family="system-ui,sans-serif" font-size="12" fill="#171713">no-tickets</text>
<text x="180" y="69" font-family="system-ui,sans-serif" font-size="12" fill="#171713" text-anchor="end">i1-generated-config</text>
<rect x="190" y="58" width="188" height="16" fill="#D8D4C8" rx="2" opacity="0.45"/>
<rect x="190" y="58" width="125.33333333333333" height="16" fill="#9BD627" rx="2"/>
<text x="386" y="71" font-family="system-ui,sans-serif" font-size="11" fill="#171713">2/3</text>
<rect x="440" y="58" width="188" height="16" fill="#D8D4C8" rx="2" opacity="0.45"/>
<rect x="440" y="58" width="0" height="16" fill="#746C83" rx="2"/>
<text x="636" y="71" font-family="system-ui,sans-serif" font-size="11" fill="#171713">0/3</text>
<text x="180" y="99" font-family="system-ui,sans-serif" font-size="12" fill="#171713" text-anchor="end">i2-banned-dependency</text>
<rect x="190" y="88" width="188" height="16" fill="#D8D4C8" rx="2" opacity="0.45"/>
<rect x="190" y="88" width="188" height="16" fill="#9BD627" rx="2"/>
<text x="386" y="101" font-family="system-ui,sans-serif" font-size="11" fill="#171713">3/3</text>
<rect x="440" y="88" width="188" height="16" fill="#D8D4C8" rx="2" opacity="0.45"/>
<rect x="440" y="88" width="188" height="16" fill="#746C83" rx="2"/>
<text x="636" y="101" font-family="system-ui,sans-serif" font-size="11" fill="#171713">3/3</text>
<text x="180" y="129" font-family="system-ui,sans-serif" font-size="12" fill="#171713" text-anchor="end">i3-misleading-units</text>
<rect x="190" y="118" width="188" height="16" fill="#D8D4C8" rx="2" opacity="0.45"/>
<rect x="190" y="118" width="125.33333333333333" height="16" fill="#9BD627" rx="2"/>
<text x="386" y="131" font-family="system-ui,sans-serif" font-size="11" fill="#171713">2/3</text>
<rect x="440" y="118" width="188" height="16" fill="#D8D4C8" rx="2" opacity="0.45"/>
<rect x="440" y="118" width="0" height="16" fill="#746C83" rx="2"/>
<text x="636" y="131" font-family="system-ui,sans-serif" font-size="11" fill="#171713">0/3</text>
</svg>